<svg width="32" height="32" viewBox="0 0 32 32" fill="none" xmlns="http://www.w3.org/2000/svg">
<rect width="32" height="32" rx="4" fill="#5652FF"/>
<path d="M10.9952 25V22.096H15.2912C16.3792 22.096 17.3312 21.872 18.1472 21.424C18.9632 20.96 19.5952 20.312 20.0432 19.48C20.5072 18.648 20.7392 17.664 20.7392 16.528C20.7392 15.424 20.5072 14.464 20.0432 13.648C19.5792 12.816 18.9392 12.176 18.1232 11.728C17.3072 11.264 16.3632 11.032 15.2912 11.032H10.9232V8.128H15.3392C16.5872 8.128 17.7392 8.336 18.7952 8.752C19.8672 9.168 20.7952 9.76 21.5792 10.528C22.3792 11.28 22.9952 12.168 23.4272 13.192C23.8752 14.216 24.0992 15.336 24.0992 16.552C24.0992 17.768 23.8752 18.896 23.4272 19.936C22.9952 20.96 22.3872 21.856 21.6032 22.624C20.8192 23.376 19.8912 23.96 18.8192 24.376C17.7632 24.792 16.6192 25 15.3872 25H10.9952ZM8.76316 25V8.128H12.0272V25H8.76316Z" fill="white"/>
</svg>
